<mxfile host="Electron" modified="2024-05-31T16:48:43.848Z" agent="Mozilla/5.0 (Windows NT 10.0; Win64; x64) AppleWebKit/537.36 (KHTML, like Gecko) draw.io/22.0.2 Chrome/114.0.5735.289 Electron/25.8.4 Safari/537.36" etag="sodn8WA1hjMII5suZPMX" version="22.0.2" type="device">
  <diagram name="Copy of Page-1" id="SG1n7jbUNAIGO0vn6a7n">
    <mxGraphModel dx="-475" dy="1168" grid="1" gridSize="10" guides="1" tooltips="1" connect="1" arrows="1" fold="1" page="1" pageScale="1" pageWidth="1654" pageHeight="1169" math="0" shadow="0">
      <root>
        <mxCell id="VXFz6mvKQ9PJlcC3uVo2-0" />
        <mxCell id="VXFz6mvKQ9PJlcC3uVo2-1" parent="VXFz6mvKQ9PJlcC3uVo2-0" />
        <UserObject label="&lt;font color=&quot;#999999&quot;&gt;L1_&lt;/font&gt;RC filters" id="VXFz6mvKQ9PJlcC3uVo2-2">
          <mxCell style="ellipse;whiteSpace=wrap;html=1;" parent="VXFz6mvKQ9PJlcC3uVo2-1" vertex="1">
            <mxGeometry x="1722.5" y="172" width="85" height="30" as="geometry" />
          </mxCell>
        </UserObject>
        <mxCell id="VXFz6mvKQ9PJlcC3uVo2-3" value="Leerdoelenkaart ontwerp template" style="text;html=1;strokeColor=none;fillColor=none;align=center;verticalAlign=middle;whiteSpace=wrap;rounded=0;fontSize=25;fontStyle=0" parent="VXFz6mvKQ9PJlcC3uVo2-1" vertex="1">
          <mxGeometry x="1693.75" y="52" width="277.5" height="70" as="geometry" />
        </mxCell>
        <UserObject label="&lt;font color=&quot;#999999&quot;&gt;L3_&lt;/font&gt;AC / DC" id="VXFz6mvKQ9PJlcC3uVo2-4">
          <mxCell style="ellipse;whiteSpace=wrap;html=1;" parent="VXFz6mvKQ9PJlcC3uVo2-1" vertex="1">
            <mxGeometry x="1720" y="210" width="75" height="32" as="geometry" />
          </mxCell>
        </UserObject>
        <mxCell id="VXFz6mvKQ9PJlcC3uVo2-6" style="rounded=0;orthogonalLoop=1;jettySize=auto;html=1;endArrow=none;endFill=0;" parent="VXFz6mvKQ9PJlcC3uVo2-1" source="VXFz6mvKQ9PJlcC3uVo2-7" target="VXFz6mvKQ9PJlcC3uVo2-8" edge="1">
          <mxGeometry relative="1" as="geometry">
            <Array as="points">
              <mxPoint x="1895" y="202" />
            </Array>
          </mxGeometry>
        </mxCell>
        <UserObject label="&lt;font color=&quot;#999999&quot;&gt;L2_&lt;/font&gt;Signalen in het&amp;nbsp;&lt;br&gt;frequentiedomein" id="VXFz6mvKQ9PJlcC3uVo2-7">
          <mxCell style="ellipse;whiteSpace=wrap;html=1;" parent="VXFz6mvKQ9PJlcC3uVo2-1" vertex="1">
            <mxGeometry x="1805" y="140" width="160" height="42" as="geometry" />
          </mxCell>
        </UserObject>
        <mxCell id="VXFz6mvKQ9PJlcC3uVo2-8" value="Analoge Signaalprocessing" style="ellipse;whiteSpace=wrap;html=1;strokeWidth=2;" parent="VXFz6mvKQ9PJlcC3uVo2-1" vertex="1">
          <mxGeometry x="1840" y="212" width="125" height="50" as="geometry" />
        </mxCell>
        <mxCell id="VXFz6mvKQ9PJlcC3uVo2-9" style="rounded=0;orthogonalLoop=1;jettySize=auto;html=1;endArrow=none;endFill=0;" parent="VXFz6mvKQ9PJlcC3uVo2-1" source="VXFz6mvKQ9PJlcC3uVo2-2" target="VXFz6mvKQ9PJlcC3uVo2-8" edge="1">
          <mxGeometry relative="1" as="geometry">
            <mxPoint x="1899" y="192" as="sourcePoint" />
            <mxPoint x="1908" y="232" as="targetPoint" />
          </mxGeometry>
        </mxCell>
        <mxCell id="VXFz6mvKQ9PJlcC3uVo2-10" style="rounded=0;orthogonalLoop=1;jettySize=auto;html=1;endArrow=none;endFill=0;" parent="VXFz6mvKQ9PJlcC3uVo2-1" source="VXFz6mvKQ9PJlcC3uVo2-4" target="VXFz6mvKQ9PJlcC3uVo2-8" edge="1">
          <mxGeometry relative="1" as="geometry">
            <mxPoint x="1807" y="207" as="sourcePoint" />
            <mxPoint x="1872" y="238" as="targetPoint" />
          </mxGeometry>
        </mxCell>
        <mxCell id="VXFz6mvKQ9PJlcC3uVo2-12" value="Digitale Signaalprocessing" style="ellipse;whiteSpace=wrap;html=1;strokeWidth=2;" parent="VXFz6mvKQ9PJlcC3uVo2-1" vertex="1">
          <mxGeometry x="1985" y="192" width="125" height="50" as="geometry" />
        </mxCell>
        <mxCell id="VXFz6mvKQ9PJlcC3uVo2-13" style="rounded=0;orthogonalLoop=1;jettySize=auto;html=1;endArrow=none;endFill=0;" parent="VXFz6mvKQ9PJlcC3uVo2-1" source="VXFz6mvKQ9PJlcC3uVo2-7" target="VXFz6mvKQ9PJlcC3uVo2-12" edge="1">
          <mxGeometry relative="1" as="geometry">
            <mxPoint x="1900" y="192" as="sourcePoint" />
            <mxPoint x="1908" y="222" as="targetPoint" />
          </mxGeometry>
        </mxCell>
        <UserObject label="&lt;font color=&quot;#999999&quot;&gt;L5_&lt;/font&gt;FIR filter" id="VXFz6mvKQ9PJlcC3uVo2-14">
          <mxCell style="ellipse;whiteSpace=wrap;html=1;" parent="VXFz6mvKQ9PJlcC3uVo2-1" vertex="1">
            <mxGeometry x="1980" y="122" width="80" height="30" as="geometry" />
          </mxCell>
        </UserObject>
        <UserObject label="&lt;font color=&quot;#999999&quot;&gt;L6_&lt;/font&gt;Median Filter" id="VXFz6mvKQ9PJlcC3uVo2-15">
          <mxCell style="ellipse;whiteSpace=wrap;html=1;" parent="VXFz6mvKQ9PJlcC3uVo2-1" vertex="1">
            <mxGeometry x="2067.5" y="140" width="72.5" height="42" as="geometry" />
          </mxCell>
        </UserObject>
        <mxCell id="VXFz6mvKQ9PJlcC3uVo2-16" style="rounded=0;orthogonalLoop=1;jettySize=auto;html=1;endArrow=none;endFill=0;" parent="VXFz6mvKQ9PJlcC3uVo2-1" source="VXFz6mvKQ9PJlcC3uVo2-14" target="VXFz6mvKQ9PJlcC3uVo2-12" edge="1">
          <mxGeometry relative="1" as="geometry">
            <mxPoint x="1943" y="188" as="sourcePoint" />
            <mxPoint x="2010" y="211" as="targetPoint" />
          </mxGeometry>
        </mxCell>
        <mxCell id="VXFz6mvKQ9PJlcC3uVo2-17" style="rounded=0;orthogonalLoop=1;jettySize=auto;html=1;endArrow=none;endFill=0;" parent="VXFz6mvKQ9PJlcC3uVo2-1" source="VXFz6mvKQ9PJlcC3uVo2-15" target="VXFz6mvKQ9PJlcC3uVo2-12" edge="1">
          <mxGeometry relative="1" as="geometry">
            <mxPoint x="2047" y="162" as="sourcePoint" />
            <mxPoint x="2054" y="202" as="targetPoint" />
          </mxGeometry>
        </mxCell>
        <mxCell id="k4e6b6dZ_VluAHgRJG0G-4" value="&lt;font style=&quot;font-size: 21px;&quot;&gt;Legenda&lt;/font&gt;" style="text;html=1;strokeColor=none;fillColor=none;align=center;verticalAlign=middle;whiteSpace=wrap;rounded=0;fontSize=25;fontStyle=0" parent="VXFz6mvKQ9PJlcC3uVo2-1" vertex="1">
          <mxGeometry x="2619.75" y="71" width="90" height="32" as="geometry" />
        </mxCell>
        <mxCell id="k4e6b6dZ_VluAHgRJG0G-6" value="Dit onderwerp is nog niet aangeraakt" style="ellipse;whiteSpace=wrap;html=1;" parent="VXFz6mvKQ9PJlcC3uVo2-1" vertex="1">
          <mxGeometry x="2599.25" y="167" width="131" height="42" as="geometry" />
        </mxCell>
        <mxCell id="k4e6b6dZ_VluAHgRJG0G-7" value="Je bent goed op weg" style="ellipse;whiteSpace=wrap;html=1;fillColor=#FFFF00;" parent="VXFz6mvKQ9PJlcC3uVo2-1" vertex="1">
          <mxGeometry x="2596.62" y="217" width="131" height="42" as="geometry" />
        </mxCell>
        <mxCell id="k4e6b6dZ_VluAHgRJG0G-8" value="Je hebt dit onderwerp aardig onder de knie" style="ellipse;whiteSpace=wrap;html=1;fillColor=#00FF00;" parent="VXFz6mvKQ9PJlcC3uVo2-1" vertex="1">
          <mxGeometry x="2596.62" y="267" width="131" height="42" as="geometry" />
        </mxCell>
        <mxCell id="k4e6b6dZ_VluAHgRJG0G-9" value="Oei, er is op dit punt veel misgegaan" style="ellipse;whiteSpace=wrap;html=1;fillColor=#FF0000;" parent="VXFz6mvKQ9PJlcC3uVo2-1" vertex="1">
          <mxGeometry x="2599.25" y="116" width="131" height="42" as="geometry" />
        </mxCell>
        <mxCell id="k4e6b6dZ_VluAHgRJG0G-10" value="Je overtreft alle verwachtingen" style="ellipse;whiteSpace=wrap;html=1;fillColor=#00FFFF;" parent="VXFz6mvKQ9PJlcC3uVo2-1" vertex="1">
          <mxGeometry x="2599.25" y="323" width="131" height="42" as="geometry" />
        </mxCell>
        <mxCell id="JQyxqjwZXSrIYbwAYboZ-1" value="&lt;font style=&quot;font-size: 21px;&quot;&gt;Maak nieuwe leerdoelenkaarten door de kopie van deze leerdoelenkaart in de config folder van je semester te customizen:&lt;br&gt;Sleep geen nieuwe ellipsen naar binnen, maar dupliceer bestaande ellipsen met LX_leerdoelen en verander de leerdoelnamen, dan is het format bruikbaar door de generator-software.&lt;br&gt;&lt;/font&gt;" style="text;html=1;strokeColor=none;fillColor=none;align=center;verticalAlign=middle;whiteSpace=wrap;rounded=0;fontSize=25;fontStyle=0" vertex="1" parent="VXFz6mvKQ9PJlcC3uVo2-1">
          <mxGeometry x="2020" y="309" width="445" height="250" as="geometry" />
        </mxCell>
      </root>
    </mxGraphModel>
  </diagram>
</mxfile>
